<?xml version="1.0" encoding="iso-8859-1"?>
<!-- Generator: Adobe Illustrator 19.0.0, SVG Export Plug-In . SVG Version: 6.00 Build 0)  -->
<svg version="1.1" id="Layer_1" xmlns="http://www.w3.org/2000/svg" xmlns:xlink="http://www.w3.org/1999/xlink" x="0px" y="0px"
	 viewBox="0 0 295.238 295.238" style="enable-background:new 0 0 295.238 295.238;" xml:space="preserve">
<g>
	<g>
		<g>
			<path d="M33.334,0v295.238h228.571V0H33.334z M248.549,9.524l-17.858,28.571h-62.676c-0.176-0.367-0.305-0.771-0.257-1.2
				c0.514-4.69-1.714-9.086-5.81-11.462c-4.124-2.386-9.086-2.138-12.948,0.671c-0.819,0.586-1.957,0.581-2.762,0
				c-3.862-2.814-8.824-3.062-12.948-0.671c-4.095,2.376-6.324,6.771-5.81,11.467c0.048,0.429-0.076,0.829-0.252,1.195H64.544
				L46.686,9.524H248.549z M200.001,138.095v42.857h-14.286v9.524h14.286V200H95.238v-9.524h14.286v-9.524H95.238v-42.857h14.286
				v-9.524H95.238v-9.524h28.571h47.619h28.572v9.524h-14.286v9.524H200.001z M127.581,66.176c0.057,0.367,0.157,0.714,0.248,1.071
				c0.086,0.338,0.119,0.69,0.238,1.019c-8.61,6.21-13.781,16.133-13.781,26.971v14.286h-9.524V95.238
				c0-14.424,7.257-27.795,19.157-35.705c0.681,0.495,1.419,0.914,2.205,1.262c0.919,0.405,1.467,1.329,1.357,2.31
				C127.368,64.153,127.43,65.176,127.581,66.176z M136.953,35.863c-0.138-1.262,0.643-1.914,1.119-2.19
				c0.229-0.133,0.667-0.333,1.205-0.333c0.41,0,0.881,0.114,1.362,0.467c4.176,3.043,9.79,3.043,13.967,0
				c1.114-0.81,2.167-0.367,2.567-0.129c0.481,0.276,1.257,0.929,1.119,2.186c-0.567,5.138,2.252,9.995,7.005,12.076
				c1.238,0.543,1.371,1.624,1.371,2.067c0,0.195-0.043,0.524-0.181,0.871l-0.138,0.248c-0.252,0.443-0.586,0.738-1.052,0.943
				c-4.757,2.086-7.567,6.933-7.005,12.067c0.033,0.29,0.005,0.548-0.048,0.776c-0.09,0.348-0.31,0.757-0.786,1.148l-0.4,0.324
				c-0.452,0.238-1.414,0.567-2.457-0.181c-4.176-3.043-9.79-3.043-13.967,0c-1.038,0.752-2.005,0.419-2.457,0.181l-0.4-0.324
				c-0.476-0.39-0.695-0.8-0.786-1.148c-0.052-0.229-0.076-0.481-0.048-0.771c0.567-5.138-2.248-9.99-7.005-12.071
				c-0.005,0-0.005-0.005-0.01-0.005c-0.457-0.205-0.79-0.5-1.038-0.938l-0.143-0.248c-0.132-0.35-0.175-0.679-0.175-0.874
				c0-0.443,0.133-1.524,1.376-2.071C134.7,45.848,137.515,40.996,136.953,35.863z M171.43,95.239v14.285h-19.048V75.586
				c2.605,0.848,5.381,0.676,7.981-0.376C167.225,79.562,171.43,87.015,171.43,95.239z M134.852,75.224
				c1.438,0.586,2.919,0.976,4.414,0.976c1.214,0,2.419-0.19,3.586-0.571v33.895h-19.048V95.238
				C123.811,87.024,128.006,79.576,134.852,75.224z M190.477,109.524h-9.524V95.238c0-10.838-5.171-20.767-13.781-26.976
				c0.114-0.329,0.152-0.681,0.238-1.019c0.09-0.357,0.19-0.7,0.248-1.067c0.152-1,0.214-2.024,0.1-3.071
				c-0.11-0.976,0.438-1.9,1.357-2.305c0.01-0.005,0.019-0.014,0.029-0.019c0.776-0.343,1.505-0.757,2.181-1.243
				c11.9,7.905,19.152,21.276,19.152,35.7V109.524z M42.858,21.367l16.41,26.252h60.124c-0.157,0.781-0.343,1.557-0.343,2.386
				c0,0.467,0.143,0.895,0.195,1.348c-14.852,9.619-24.005,26.043-24.005,43.886v14.286h-9.524v100h57.143v38.095h-83.59
				l-16.41,26.252V21.367z M46.691,285.714l17.853-28.571h166.152l17.857,28.571H46.691z M252.382,273.871l-16.41-26.252h-83.59
				v-38.095h57.143v-100h-9.524V95.238c0-17.843-9.152-34.267-24.005-43.886c0.052-0.452,0.195-0.881,0.195-1.348
				c0-0.829-0.186-1.605-0.343-2.386h60.124l16.41-26.252V273.871z"/>
			<path d="M147.62,128.571c-10.505,0-19.048,8.543-19.048,19.048c0,4.6,1.714,9.052,4.762,12.524v30.333h28.571v-30.333
				c3.048-3.471,4.762-7.924,4.762-12.524C166.667,137.114,158.125,128.571,147.62,128.571z M153.953,154.662l-1.571,1.419v24.871
				h-9.524v-24.871l-1.571-1.419c-2.057-1.852-3.19-4.357-3.19-7.043c0-5.252,4.271-9.524,9.524-9.524s9.524,4.271,9.524,9.524
				C157.144,150.305,156.011,152.81,153.953,154.662z"/>
		</g>
	</g>
</g>
<g>
</g>
<g>
</g>
<g>
</g>
<g>
</g>
<g>
</g>
<g>
</g>
<g>
</g>
<g>
</g>
<g>
</g>
<g>
</g>
<g>
</g>
<g>
</g>
<g>
</g>
<g>
</g>
<g>
</g>
</svg>
